<svg xmlns="http://www.w3.org/2000/svg" viewBox="0 0 64 64" role="img" aria-label="Qoder">
  <rect width="64" height="64" rx="14" fill="#101828"/>
  <path d="M32 12c11.05 0 20 8.95 20 20 0 4.15-1.26 8.01-3.42 11.21l5.11 5.1-5.38 5.38-5.1-5.11A19.9 19.9 0 0 1 32 52c-11.05 0-20-8.95-20-20s8.95-20 20-20Zm0 8.2c-6.52 0-11.8 5.28-11.8 11.8S25.48 43.8 32 43.8c1.85 0 3.6-.43 5.16-1.19l-5.61-5.61 5.45-5.45 5.61 5.61c.76-1.56 1.19-3.31 1.19-5.16 0-6.52-5.28-11.8-11.8-11.8Z" fill="#62D0FF"/>
  <path d="M25.7 30.15h12.6v5.7H25.7z" fill="#FFFFFF"/>
</svg>
